<?xml version="1.0" standalone="no"?>
<!DOCTYPE svg PUBLIC "-//W3C//DTD SVG 20010904//EN"
 "http://www.w3.org/TR/2001/REC-SVG-20010904/DTD/svg10.dtd">
<svg version="1.0" xmlns="http://www.w3.org/2000/svg"
 width="200.000000pt" height="200.000000pt" viewBox="0 0 200.000000 200.000000"
 preserveAspectRatio="xMidYMid meet">
<metadata>
Created by potrace 1.11, written by Peter Selinger 2001-2013
</metadata>
<g transform="translate(0.000000,200.000000) scale(0.100000,-0.100000)"
fill="#000000" stroke="none">
<path d="M908 1681 c-40 -46 -58 -98 -58 -163 0 -53 19 -116 30 -98 4 7 10 -2
14 -22 6 -28 8 -31 17 -15 6 9 14 15 20 12 5 -4 9 0 9 7 0 9 3 9 10 -2 7 -11
10 -11 10 -2 0 7 4 11 8 8 15 -9 44 66 49 124 6 60 -21 143 -57 175 -16 15
-20 13 -52 -24z m29 -223 c-2 -18 -4 -4 -4 32 0 36 2 50 4 33 2 -18 2 -48 0
-65z m30 40 c-3 -7 -5 -2 -5 12 0 14 2 19 5 13 2 -7 2 -19 0 -25z m-60 -60
c-2 -18 -4 -6 -4 27 0 33 2 48 4 33 2 -15 2 -42 0 -60z m50 -10 c-3 -7 -5 -2
-5 12 0 14 2 19 5 13 2 -7 2 -19 0 -25z"/>
<path d="M1153 1571 c-119 -94 -215 -289 -212 -431 2 -50 2 -52 9 -20 l7 35 2
-35 c2 -27 4 -31 10 -16 7 18 8 18 14 2 4 -10 4 -23 0 -29 -3 -7 -3 -9 2 -5 4
4 15 2 23 -4 12 -11 24 -2 72 49 62 68 122 177 145 263 15 56 20 167 9 208 -9
31 -25 28 -81 -17z m-82 -298 c-12 -20 -14 -14 -5 12 4 9 9 14 11 11 3 -2 0
-13 -6 -23z m14 -63 c-9 -16 -18 -30 -21 -30 -2 0 2 14 11 30 9 17 18 30 21
30 2 0 -2 -13 -11 -30z m-54 -27 c-12 -20 -14 -14 -5 12 4 9 9 14 11 11 3 -2
0 -13 -6 -23z m-64 -15 c-3 -7 -5 -2 -5 12 0 14 2 19 5 13 2 -7 2 -19 0 -25z
m74 -34 c-27 -45 -26 -52 2 -28 20 17 20 17 -2 -8 -27 -31 -49 -27 -28 5 8 12
19 32 26 45 6 12 14 22 17 22 3 0 -3 -16 -15 -36z m49 22 c0 -2 -8 -10 -17
-17 -16 -13 -17 -12 -4 4 13 16 21 21 21 13z m-89 -43 c-12 -20 -14 -14 -5 12
4 9 9 14 11 11 3 -2 0 -13 -6 -23z"/>
<path d="M562 1508 c10 -117 100 -253 208 -312 29 -16 49 -23 45 -16 -6 10 -3
12 11 6 10 -4 -8 21 -41 56 -102 107 -114 127 -22 38 48 -47 89 -87 92 -88 2
-2 8 6 15 17 6 12 7 20 2 19 -5 -2 -34 35 -65 80 -31 46 -50 79 -42 72 7 -6
30 -36 51 -66 47 -68 58 -62 15 8 -18 28 -25 46 -16 38 9 -7 34 -50 56 -94 36
-71 40 -76 34 -41 -10 66 -61 162 -115 219 -52 55 -140 108 -199 121 l-34 7 5
-64z m169 -85 c13 -16 12 -17 -3 -4 -17 13 -22 21 -14 21 2 0 10 -8 17 -17z
m39 -103 c51 -61 90 -113 88 -115 -2 -3 -46 47 -96 110 -51 63 -90 115 -88
115 2 0 46 -50 96 -110z m10 -100 c19 -16 30 -30 25 -30 -6 0 -30 19 -55 41
-25 22 -36 36 -25 30 11 -6 36 -24 55 -41z"/>
<path d="M1385 1506 c-27 -13 -64 -39 -82 -57 -33 -35 -69 -107 -59 -117 3 -3
6 1 6 9 1 10 3 10 10 -3 16 -26 48 -14 104 39 l51 48 -49 -52 c-65 -68 -73
-105 -16 -66 73 48 130 134 130 196 0 35 -26 36 -95 3z m45 -30 c0 -2 -8 -10
-17 -17 -16 -13 -17 -12 -4 4 13 16 21 21 21 13z m-99 -74 c-57 -67 -51 -76
12 -17 l52 50 -48 -51 c-49 -52 -72 -62 -82 -36 -5 14 19 62 31 62 3 0 -2 -10
-10 -22 -33 -47 -14 -40 30 10 57 65 69 69 15 4z m24 -72 c-10 -11 -22 -20
-28 -20 -5 0 1 9 14 20 31 25 37 25 14 0z"/>
<path d="M374 1456 c-13 -33 63 -123 93 -111 9 3 11 0 7 -6 -4 -8 1 -9 16 -4
14 5 20 3 16 -3 -4 -6 2 -8 14 -5 11 3 23 10 27 16 4 6 0 8 -11 4 -16 -6 -76
17 -76 29 0 2 14 -3 30 -11 32 -17 56 -12 43 8 -19 30 -9 39 13 12 13 -16 24
-25 24 -18 0 7 -16 28 -35 47 -48 48 -149 74 -161 42z m132 -72 c1 -9 0 -13
-4 -10 -3 4 -7 14 -8 22 -1 9 0 13 4 10 3 -4 7 -14 8 -22z"/>
<path d="M1514 1330 c-146 -38 -300 -126 -411 -234 -37 -37 -62 -69 -58 -75 3
-6 11 -9 16 -5 5 3 7 9 4 14 -6 9 53 64 115 106 51 35 88 54 50 27 -82 -60
-160 -128 -151 -131 6 -2 8 -8 5 -14 -4 -6 54 22 130 61 75 40 136 70 136 67
0 -2 -60 -37 -134 -77 -74 -41 -133 -75 -131 -77 4 -4 163 62 236 99 32 16 59
27 59 24 0 -7 -165 -88 -225 -111 -83 -31 -25 -27 65 5 47 16 86 28 88 27 6
-6 -112 -50 -182 -68 l-71 -18 55 5 c162 14 428 158 531 287 37 45 69 94 69
103 0 12 -130 2 -196 -15z m-114 -115 c0 -2 -18 -14 -40 -25 -22 -11 -40 -18
-40 -15 0 2 17 13 38 24 42 23 42 23 42 16z m-90 -9 c0 -2 -7 -7 -16 -10 -8
-3 -12 -2 -9 4 6 10 25 14 25 6z m130 -11 c0 -2 -18 -14 -40 -25 -22 -11 -40
-18 -40 -15 0 2 17 13 38 24 42 23 42 23 42 16z m-143 -38 c-138 -89 -200
-127 -203 -124 -7 7 201 138 216 136 3 0 -3 -6 -13 -12z"/>
<path d="M301 1280 c36 -64 137 -159 228 -214 130 -78 335 -140 356 -106 4 6
-7 8 -27 5 l-33 -6 35 13 c19 7 36 19 36 26 1 6 2 17 3 23 1 8 7 7 18 -2 10
-8 3 5 -16 29 -66 85 -212 182 -349 232 -66 25 -110 34 -181 38 l-94 5 24 -43z
m459 -176 c0 -2 -9 0 -20 6 -11 6 -20 13 -20 16 0 2 9 0 20 -6 11 -6 20 -13
20 -16z m140 -72 c0 -7 -56 36 -75 59 -11 12 1 5 28 -16 26 -22 47 -41 47 -43z
m-110 13 c0 -3 -22 6 -50 20 -27 14 -50 28 -50 30 0 3 23 -6 50 -20 28 -14 50
-28 50 -30z m100 -31 c0 -3 -20 9 -45 26 -25 17 -45 33 -45 36 0 3 20 -9 45
-26 25 -17 45 -33 45 -36z m-140 16 c8 -5 11 -10 5 -10 -5 0 -17 5 -25 10 -8
5 -10 10 -5 10 6 0 17 -5 25 -10z m50 -20 c8 -5 11 -10 5 -10 -5 0 -17 5 -25
10 -8 5 -10 10 -5 10 6 0 17 -5 25 -10z m74 -23 c-10 -6 -24 -5 -38 2 -18 9
-17 10 9 5 29 -6 29 -6 10 10 -19 16 -19 16 8 4 24 -10 26 -13 11 -21z"/>
<path d="M735 585 l0 -185 92 0 93 0 14 33 c16 39 15 40 -15 29 -13 -5 -45
-12 -71 -16 l-48 -7 0 65 c0 36 3 66 8 66 4 0 21 -4 39 -9 28 -8 34 -6 47 15
9 13 16 26 16 29 0 3 -25 5 -55 5 l-55 0 0 60 c0 66 8 72 67 49 23 -8 30 -7
40 7 28 38 17 44 -79 44 l-93 0 0 -185z"/>
<path d="M1088 678 c-23 -51 -63 -135 -88 -185 l-46 -93 43 0 c33 0 43 4 43
16 0 9 5 34 12 55 l11 39 67 0 c73 0 77 -3 96 -82 6 -25 10 -28 51 -28 l44 0
-19 28 c-11 15 -52 98 -92 185 -40 86 -74 157 -77 157 -2 0 -22 -42 -45 -92z
m82 -109 c0 -5 -18 -9 -40 -9 -22 0 -40 2 -40 4 0 2 9 26 21 52 l20 48 20 -43
c10 -24 19 -47 19 -52z"/>
</g>
</svg>
